<svg width="616" height="347" viewBox="0 0 616 347" fill="none" xmlns="http://www.w3.org/2000/svg">
<rect width="616" height="346.5" rx="24" fill="#232323"/>
<path d="M263.8 195.392C260.76 191.854 258.32 187.915 256.48 183.573C254.64 179.231 253.48 174.648 253 169.824H262.84C263.32 173.362 264.2 176.718 265.48 179.892C266.76 183.07 268.44 185.985 270.52 188.638L263.8 195.392ZM253 160.176C253.64 155.352 254.84 150.769 256.6 146.427C258.36 142.085 260.76 138.146 263.8 134.608L270.52 141.362C268.44 144.015 266.76 146.929 265.48 150.103C264.2 153.281 263.32 156.638 262.84 160.176H253ZM295.96 213C291.16 212.518 286.621 211.352 282.342 209.503C278.061 207.653 274.12 205.281 270.52 202.387L277.24 195.392C280.04 197.482 282.981 199.211 286.062 200.578C289.141 201.945 292.44 202.869 295.96 203.352V213ZM277.48 134.608L270.52 127.613C274.12 124.719 278.061 122.347 282.342 120.497C286.621 118.648 291.24 117.482 296.2 117V126.648C292.6 127.131 289.24 128.055 286.12 129.422C283 130.789 280.12 132.518 277.48 134.608ZM289 186.709V143.291L322.6 165L289 186.709ZM305.8 213V203.352C315.48 201.985 323.501 197.683 329.862 190.447C336.221 183.211 339.4 174.729 339.4 165C339.4 155.271 336.221 146.789 329.862 139.553C323.501 132.317 315.48 128.015 305.8 126.648V117C318.12 118.367 328.4 123.593 336.64 132.678C344.88 141.764 349 152.538 349 165C349 177.462 344.88 188.236 336.64 197.322C328.4 206.407 318.12 211.633 305.8 213Z" fill="white"/>
</svg>
