<svg width="124" height="32" viewBox="0 0 124 32" fill="none" xmlns="http://www.w3.org/2000/svg">
<path d="M13.574 15.9089C20.4068 15.9089 27.2395 15.9089 34.1333 15.9089C34.0723 16.6679 34.0418 17.3966 33.9503 18.1253C33.7063 20.0987 33.0352 21.9203 32.1201 23.6812C31.205 25.4118 29.8933 26.8084 28.4292 28.1139C26.2329 30.0569 23.6401 31.1499 20.8033 31.666C19.8577 31.8482 18.8816 31.9393 17.9055 31.9696C12.0488 32 6.16169 31.9696 0.305034 32C0.213524 32 0.152517 32 0 32C0.0915102 31.8786 0.152517 31.7875 0.213524 31.6964C1.03712 30.7249 1.89121 29.7533 2.7148 28.7818C4.02645 27.2334 5.30759 25.7154 6.61924 24.167C7.96139 22.5579 9.33404 20.9791 10.6762 19.37C11.5913 18.2771 12.5064 17.1841 13.4215 16.0911C13.452 16.0304 13.513 15.9697 13.574 15.9089Z" fill="#232323"/>
<path d="M21.6459 12.7514C14.5081 12.7514 7.40078 12.7514 0.293488 12.7514C0.293488 8.50094 0.293488 4.28083 0.293488 0C10.9392 0 21.5544 0 32.2305 0C32.0475 0.242884 31.895 0.485769 31.712 0.698292C30.5529 2.06452 29.3632 3.4611 28.2041 4.82732C26.8925 6.37571 25.5808 7.95445 24.2692 9.50284C23.4151 10.5958 22.5305 11.6584 21.6459 12.7514Z" fill="#232323"/>
<path d="M44.176 6.84V9.264H53.32V9.312L43.696 21.576V24H57.04V21.576H47.176V21.528L56.8 9.264V6.84H44.176ZM59.3479 6.84V24H62.2039V6.84H59.3479ZM69.1323 24H71.9883V9.264H77.4603V6.84H63.6363V9.264H69.1323V24ZM79.4093 6.84V24H90.8333V21.576H82.2653V6.84H79.4093ZM102.846 19.944L104.238 24H107.142L100.854 6.84H97.8544L91.5424 24H94.4464L95.8384 19.944H102.846ZM96.6304 17.568L99.3424 9.456H99.3904L102.078 17.568H96.6304ZM119.814 12.744H122.67C122.262 9.24 119.622 6.48 115.278 6.48C110.334 6.48 107.214 10.248 107.214 15.408C107.214 20.592 110.334 24.36 115.278 24.36C119.646 24.36 122.286 21.6 122.67 17.736H119.814C119.622 19.824 118.398 21.912 115.206 21.912C111.51 21.912 110.046 18.816 110.046 15.408C110.046 12.024 111.51 8.928 115.206 8.928C118.374 8.928 119.502 11.016 119.814 12.744Z" fill="#232323"/>
</svg>
